{
  "accessors": [
    {
      "bufferView": 2,
      "componentType": 5126,
      "count": 30916,
      "max": [
        0.04889160394668579,
        0.06711478531360626,
        0.06287321448326111
      ],
      "min": [
        -0.04889160394668579,
        -0.06711478531360626,
        -0.06287321448326111
      ],
      "type": "VEC3"
    },
    {
      "bufferView": 2,
      "byteOffset": 370992,
      "componentType": 5126,
      "count": 30916,
      "max": [
        0.9999423623085022,
        0.9998872876167297,
        0.9999971389770508
      ],
      "min": [
        -0.9998782873153687,
        -0.998733639717102,
        -0.9999802112579346
      ],
      "type": "VEC3"
    },
    {
      "bufferView": 3,
      "componentType": 5126,
      "count": 30916,
      "max": [
        0.9999927282333374,
        0.9999984502792358,
        0.9981170296669006,
        1.0
      ],
      "min": [
        -0.9996048808097839,
        -1.0,
        -0.9999152421951294,
        -1.0
      ],
      "type": "VEC4"
    },
    {
      "bufferView": 1,
      "componentType": 5126,
      "count": 30916,
      "max": [
        0.999945342540741,
        0.9948737025260925
      ],
      "min": [
        6.939272134331986e-05,
        0.00011450950842117891
      ],
      "type": "VEC2"
    },
    {
      "bufferView": 1,
      "byteOffset": 247328,
      "componentType": 5126,
      "count": 30916,
      "max": [
        0.999945342540741,
        0.9948737025260925
      ],
      "min": [
        6.939272134331986e-05,
        0.00011450950842117891
      ],
      "type": "VEC2"
    },
    {
      "bufferView": 1,
      "byteOffset": 494656,
      "componentType": 5126,
      "count": 30916,
      "max": [
        0.999945342540741,
        0.9948737025260925
      ],
      "min": [
        6.939272134331986e-05,
        0.00011450950842117891
      ],
      "type": "VEC2"
    },
    {
      "bufferView": 1,
      "byteOffset": 741984,
      "componentType": 5126,
      "count": 30916,
      "max": [
        0.999945342540741,
        0.9948737025260925
      ],
      "min": [
        6.939272134331986e-05,
        0.00011450950842117891
      ],
      "type": "VEC2"
    },
    {
      "bufferView": 1,
      "byteOffset": 989312,
      "componentType": 5126,
      "count": 30916,
      "max": [
        0.999945342540741,
        0.9948737025260925
      ],
      "min": [
        6.939272134331986e-05,
        0.00011450950842117891
      ],
      "type": "VEC2"
    },
    {
      "bufferView": 0,
      "componentType": 5125,
      "count": 164241,
      "type": "SCALAR"
    }
  ],
  "asset": {
    "extras": {
      "author": "varlamov5264 (https://sketchfab.com/varlamov5264)",
      "license": "CC-BY-4.0 (http://creativecommons.org/licenses/by/4.0/)",
      "source": "https://sketchfab.com/3d-models/dolphin-statuette-imperia-a30a38d1e9f54000bbddfcb0b33e650b",
      "title": "Dolphin Statuette Imperia"
    },
    "generator": "Sketchfab-14.55.0",
    "version": "2.0"
  },
  "bufferViews": [
    {
      "buffer": 0,
      "byteLength": 656964,
      "name": "floatBufferViews",
      "target": 34963
    },
    {
      "buffer": 0,
      "byteLength": 1236640,
      "byteOffset": 656964,
      "byteStride": 8,
      "name": "floatBufferViews",
      "target": 34962
    },
    {
      "buffer": 0,
      "byteLength": 741984,
      "byteOffset": 1893604,
      "byteStride": 12,
      "name": "floatBufferViews",
      "target": 34962
    },
    {
      "buffer": 0,
      "byteLength": 494656,
      "byteOffset": 2635588,
      "byteStride": 16,
      "name": "floatBufferViews",
      "target": 34962
    }
  ],
  "buffers": [
    {
      "byteLength": 3130244,
      "uri": "scene.bin"
    }
  ],
  "images": [
    {
      "uri": "textures/material_0_baseColor.jpeg"
    },
    {
      "uri": "textures/material_0_metallicRoughness.png"
    },
    {
      "uri": "textures/material_0_normal.jpeg"
    }
  ],
  "materials": [
    {
      "name": "material_0",
      "normalTexture": {
        "index": 2
      },
      "occlusionTexture": {
        "index": 1
      },
      "pbrMetallicRoughness": {
        "baseColorTexture": {
          "index": 0
        },
        "metallicFactor": 0.0,
        "metallicRoughnessTexture": {
          "index": 1
        }
      }
    }
  ],
  "meshes": [
    {
      "name": "Object_0",
      "primitives": [
        {
          "attributes": {
            "NORMAL": 1,
            "POSITION": 0,
            "TANGENT": 2,
            "TEXCOORD_0": 3,
            "TEXCOORD_1": 4,
            "TEXCOORD_2": 5,
            "TEXCOORD_3": 6,
            "TEXCOORD_4": 7
          },
          "indices": 8,
          "material": 0,
          "mode": 4
        }
      ]
    }
  ],
  "nodes": [
    {
      "children": [
        1
      ],
      "matrix": [
        -0.0847029983997345,
        2.2124663371426875e-16,
        -0.9964062571525574,
        0.0,
        -0.9964062571525574,
        -1.8807843815634606e-17,
        0.0847029983997345,
        0.0,
        0.0,
        1.0,
        2.220446049250313e-16,
        0.0,
        0.0,
        0.0,
        0.0,
        1.0
      ],
      "name": "Sketchfab_model"
    },
    {
      "children": [
        2
      ],
      "name": "root"
    },
    {
      "children": [
        3
      ],
      "matrix": [
        1.0,
        0.0,
        0.0,
        0.0,
        0.0,
        2.220446049250313e-16,
        1.0,
        0.0,
        0.0,
        -1.0,
        2.220446049250313e-16,
        0.0,
        0.0,
        0.0,
        0.0,
        1.0
      ],
      "name": "GLTF_SceneRootNode"
    },
    {
      "children": [
        4
      ],
      "name": "_0"
    },
    {
      "mesh": 0,
      "name": "Object_4"
    }
  ],
  "samplers": [
    {
      "magFilter": 9729,
      "minFilter": 9987,
      "wrapS": 10497,
      "wrapT": 10497
    }
  ],
  "scene": 0,
  "scenes": [
    {
      "name": "Sketchfab_Scene",
      "nodes": [
        0
      ]
    }
  ],
  "textures": [
    {
      "sampler": 0,
      "source": 0
    },
    {
      "sampler": 0,
      "source": 1
    },
    {
      "sampler": 0,
      "source": 2
    }
  ]
}
